<svg xmlns="http://www.w3.org/2000/svg" width="28" height="23.118" viewBox="0 0 28 23.118">
  <path fill="rgb(6,31,53)" fill-rule="evenodd" d="M5.9630127 2.5c0-1.37979126 1.12023925-2.5 2.5-2.5H25.5C26.87976074 0 28 1.12020874 28 2.5S26.87976074 5 25.5 5H8.4630127c-1.37976075 0-2.5-1.12020874-2.5-2.5zm6.4814453 9.05882263c0-1.37979126 1.12023927-2.5 2.5-2.5H25.5c1.37976074 0 2.5 1.12020874 2.5 2.5s-1.12023926 2.5-2.5 2.5H14.944458c-1.37976073 0-2.5-1.12020874-2.5-2.5zM0 20.6176529c0-1.37979126 1.12023926-2.5 2.5-2.5h23c1.37976074 0 2.5 1.12020874 2.5 2.5 0 1.37978363-1.12023926 2.5-2.5 2.5h-23c-1.37976074 0-2.5-1.12021637-2.5-2.5z"/>
</svg>
