<svg width="247" height="62" viewBox="0 0 247 62" fill="none" xmlns="http://www.w3.org/2000/svg">
<path d="M34.1278 5.18608H40.3621V22H44.6178V5.18608H50.8522V1.63636H34.1278V5.18608ZM57.2027 13.1705C57.2126 11.2017 58.4158 10.0483 60.1459 10.0483C61.8661 10.0483 62.8803 11.152 62.8703 13.0312V22H67.1061V12.2756C67.1161 8.69602 65.0081 6.52841 61.8263 6.52841C59.5095 6.52841 57.9584 7.62216 57.2624 9.42188H57.0834V1.63636H52.9669V22H57.2027V13.1705ZM74.2347 22.2884C76.4918 22.2884 77.9534 21.304 78.6992 19.8821H78.8185V22H82.8355V11.6989C82.8355 8.05966 79.7531 6.52841 76.3526 6.52841C72.6935 6.52841 70.2872 8.27841 69.7006 11.0625L73.6182 11.3807C73.9066 10.3665 74.8114 9.62074 76.3327 9.62074C77.7745 9.62074 78.5997 10.3466 78.5997 11.5994V11.6591C78.5997 12.6435 77.5557 12.7727 74.9009 13.0312C71.8781 13.3097 69.1637 14.3239 69.1637 17.7344C69.1637 20.7571 71.3213 22.2884 74.2347 22.2884ZM75.4477 19.3651C74.1452 19.3651 73.2105 18.7585 73.2105 17.5952C73.2105 16.402 74.1949 15.8153 75.6864 15.6065C76.6111 15.4773 78.1225 15.2585 78.6296 14.9205V16.5412C78.6296 18.142 77.3071 19.3651 75.4477 19.3651ZM89.7975 13.1705C89.8075 11.2017 90.9808 10.0483 92.691 10.0483C94.3913 10.0483 95.4154 11.1619 95.4055 13.0312V22H99.6413V12.2756C99.6413 8.71591 97.5532 6.52841 94.3714 6.52841C92.1044 6.52841 90.4637 7.64204 89.7777 9.42188H89.5987V6.72727H85.5617V22H89.7975V13.1705ZM102.42 22H106.656V17.1477L107.799 15.8452L111.965 22H116.927L110.971 13.3395L116.638 6.72727H111.776L106.884 12.5241H106.656V1.63636H102.42V22ZM126.692 27.6974C129.844 27.6974 131.525 26.0966 132.38 23.6506L138.316 6.74716L133.831 6.72727L130.64 17.9432H130.48L127.319 6.72727H122.864L128.343 22.4375L128.094 23.0838C127.498 24.4659 126.473 24.5653 124.982 24.098L124.027 27.2699C124.634 27.5185 125.618 27.6974 126.692 27.6974ZM146.304 22.2983C150.938 22.2983 153.821 19.1264 153.821 14.4233C153.821 9.69034 150.938 6.52841 146.304 6.52841C141.671 6.52841 138.787 9.69034 138.787 14.4233C138.787 19.1264 141.671 22.2983 146.304 22.2983ZM146.324 19.017C144.186 19.017 143.093 17.0582 143.093 14.3935C143.093 11.7287 144.186 9.75994 146.324 9.75994C148.422 9.75994 149.516 11.7287 149.516 14.3935C149.516 17.0582 148.422 19.017 146.324 19.017ZM165.81 15.4972C165.82 17.5455 164.418 18.6193 162.896 18.6193C161.295 18.6193 160.261 17.4957 160.251 15.696V6.72727H156.016V16.4517C156.026 20.0213 158.114 22.1989 161.186 22.1989C163.483 22.1989 165.134 21.0156 165.82 19.2259H165.979V22H170.045V6.72727H165.81V15.4972ZM187.007 6.72727H183.974V5.70312C183.974 4.66903 184.392 4.0625 185.635 4.0625C186.142 4.0625 186.659 4.17188 186.997 4.28125L187.743 1.09943C187.216 0.940341 186.053 0.681817 184.75 0.681817C181.876 0.681817 179.739 2.30256 179.739 5.62358V6.72727H177.581V9.90909H179.739V22H183.974V9.90909H187.007V6.72727ZM195.389 22.2983C200.022 22.2983 202.906 19.1264 202.906 14.4233C202.906 9.69034 200.022 6.52841 195.389 6.52841C190.755 6.52841 187.872 9.69034 187.872 14.4233C187.872 19.1264 190.755 22.2983 195.389 22.2983ZM195.408 19.017C193.271 19.017 192.177 17.0582 192.177 14.3935C192.177 11.7287 193.271 9.75994 195.408 9.75994C197.506 9.75994 198.6 11.7287 198.6 14.3935C198.6 17.0582 197.506 19.017 195.408 19.017ZM205.1 22H209.336V13.3594C209.336 11.4801 210.708 10.1875 212.577 10.1875C213.164 10.1875 213.969 10.2869 214.367 10.4162V6.65767C213.989 6.56818 213.462 6.50852 213.035 6.50852C211.324 6.50852 209.922 7.50284 209.365 9.39205H209.206V6.72727H205.1V22ZM13.6506 45.0824C13.2728 42.2685 11.0057 40.5284 7.14778 40.5284C3.24011 40.5284 0.664823 42.3381 0.674767 45.2812C0.664823 47.5682 2.10658 49.0497 5.08954 49.6463L7.73443 50.1733C9.06681 50.4418 9.67335 50.929 9.69323 51.6946C9.67335 52.5994 8.68897 53.2457 7.20744 53.2457C5.69607 53.2457 4.69181 52.5994 4.43329 51.3565L0.267096 51.5753C0.664823 54.4986 3.15062 56.2983 7.19749 56.2983C11.1549 56.2983 13.9887 54.2798 13.9986 51.267C13.9887 49.0597 12.5469 47.7372 9.58386 47.1307L6.81965 46.5739C5.39778 46.2656 4.87079 45.7784 4.88073 45.0426C4.87079 44.1278 5.90488 43.5312 7.21738 43.5312C8.68897 43.5312 9.56397 44.3366 9.77278 45.321L13.6506 45.0824ZM20.3417 47.1705C20.3516 45.2017 21.5548 44.0483 23.2849 44.0483C25.005 44.0483 26.0192 45.152 26.0093 47.0312V56H30.2451V46.2756C30.255 42.696 28.1471 40.5284 24.9653 40.5284C22.6485 40.5284 21.0974 41.6222 20.4013 43.4219H20.2224V35.6364H16.1059V56H20.3417V47.1705ZM37.3737 56.2884C39.6308 56.2884 41.0924 55.304 41.8381 53.8821H41.9575V56H45.9745V45.6989C45.9745 42.0597 42.8921 40.5284 39.4916 40.5284C35.8325 40.5284 33.4262 42.2784 32.8396 45.0625L36.7572 45.3807C37.0455 44.3665 37.9504 43.6207 39.4717 43.6207C40.9134 43.6207 41.7387 44.3466 41.7387 45.5994V45.6591C41.7387 46.6435 40.6947 46.7727 38.0399 47.0312C35.0171 47.3097 32.3026 48.3239 32.3026 51.7344C32.3026 54.7571 34.4603 56.2884 37.3737 56.2884ZM38.5867 53.3651C37.2842 53.3651 36.3495 52.7585 36.3495 51.5952C36.3495 50.402 37.3339 49.8153 38.8254 49.6065C39.7501 49.4773 41.2614 49.2585 41.7685 48.9205V50.5412C41.7685 52.142 40.4461 53.3651 38.5867 53.3651ZM48.7007 56H52.9365V47.3594C52.9365 45.4801 54.3087 44.1875 56.178 44.1875C56.7647 44.1875 57.5701 44.2869 57.9678 44.4162V40.6577C57.5899 40.5682 57.0629 40.5085 56.6354 40.5085C54.9252 40.5085 53.5232 41.5028 52.9664 43.392H52.8073V40.7273H48.7007V56ZM59.5978 56H63.8336V40.7273H59.5978V56ZM61.7256 38.7585C62.9884 38.7585 64.0225 37.794 64.0225 36.6108C64.0225 35.4375 62.9884 34.473 61.7256 34.473C60.4728 34.473 59.4387 35.4375 59.4387 36.6108C59.4387 37.794 60.4728 38.7585 61.7256 38.7585ZM70.9025 47.1705C70.9124 45.2017 72.0857 44.0483 73.7959 44.0483C75.4962 44.0483 76.5204 45.1619 76.5104 47.0312V56H80.7462V46.2756C80.7462 42.7159 78.6581 40.5284 75.4763 40.5284C73.2093 40.5284 71.5687 41.642 70.8826 43.4219H70.7036V40.7273H66.6667V56H70.9025V47.1705ZM90.4053 61.946C94.7704 61.946 97.8726 59.9574 97.8726 56.1491V40.7273H93.6667V43.2926H93.5076C92.9408 42.0497 91.6979 40.5284 89.1425 40.5284C85.7917 40.5284 82.9579 43.1335 82.9579 48.3338C82.9579 53.4148 85.7121 55.7812 89.1525 55.7812C91.5886 55.7812 92.9508 54.5582 93.5076 53.2955H93.6866V56.0895C93.6866 58.0881 92.3442 58.9034 90.5048 58.9034C88.6354 58.9034 87.6908 58.0881 87.3428 57.2628L83.4252 57.7898C83.9323 60.0966 86.2888 61.946 90.4053 61.946ZM90.4948 52.5994C88.4167 52.5994 87.2832 50.9489 87.2832 48.3139C87.2832 45.7188 88.3968 43.8991 90.4948 43.8991C92.553 43.8991 93.7065 45.6392 93.7065 48.3139C93.7065 51.0085 92.5332 52.5994 90.4948 52.5994ZM109.219 61.6974C112.371 61.6974 114.051 60.0966 114.906 57.6506L120.842 40.7472L116.358 40.7273L113.166 51.9432H113.007L109.845 40.7273H105.391L110.869 56.4375L110.621 57.0838C110.024 58.4659 109 58.5653 107.509 58.098L106.554 61.2699C107.161 61.5185 108.145 61.6974 109.219 61.6974ZM128.831 56.2983C133.465 56.2983 136.348 53.1264 136.348 48.4233C136.348 43.6903 133.465 40.5284 128.831 40.5284C124.198 40.5284 121.314 43.6903 121.314 48.4233C121.314 53.1264 124.198 56.2983 128.831 56.2983ZM128.851 53.017C126.713 53.017 125.619 51.0582 125.619 48.3935C125.619 45.7287 126.713 43.7599 128.851 43.7599C130.949 43.7599 132.043 45.7287 132.043 48.3935C132.043 51.0582 130.949 53.017 128.851 53.017ZM148.336 49.4972C148.346 51.5455 146.944 52.6193 145.423 52.6193C143.822 52.6193 142.788 51.4957 142.778 49.696V40.7273H138.542V50.4517C138.552 54.0213 140.64 56.1989 143.713 56.1989C146.01 56.1989 147.66 55.0156 148.346 53.2259H148.506V56H152.572V40.7273H148.336V49.4972ZM155.4 56H159.636V47.3594C159.636 45.4801 161.008 44.1875 162.878 44.1875C163.464 44.1875 164.27 44.2869 164.667 44.4162V40.6577C164.29 40.5682 163.763 40.5085 163.335 40.5085C161.625 40.5085 160.223 41.5028 159.666 43.392H159.507V40.7273H155.4V56ZM184.925 45.0824C184.547 42.2685 182.28 40.5284 178.422 40.5284C174.515 40.5284 171.94 42.3381 171.949 45.2812C171.94 47.5682 173.381 49.0497 176.364 49.6463L179.009 50.1733C180.342 50.4418 180.948 50.929 180.968 51.6946C180.948 52.5994 179.964 53.2457 178.482 53.2457C176.971 53.2457 175.967 52.5994 175.708 51.3565L171.542 51.5753C171.94 54.4986 174.425 56.2983 178.472 56.2983C182.43 56.2983 185.263 54.2798 185.273 51.267C185.263 49.0597 183.822 47.7372 180.859 47.1307L178.094 46.5739C176.672 46.2656 176.145 45.7784 176.155 45.0426C176.145 44.1278 177.18 43.5312 178.492 43.5312C179.964 43.5312 180.839 44.3366 181.047 45.321L184.925 45.0824ZM195.504 40.7273H192.631V37.0682H188.395V40.7273H186.307V43.9091H188.395V51.8636C188.375 54.8565 190.413 56.3381 193.486 56.2088C194.579 56.169 195.355 55.9503 195.783 55.8111L195.116 52.6591C194.908 52.6989 194.46 52.7983 194.062 52.7983C193.217 52.7983 192.631 52.4801 192.631 51.3068V43.9091H195.504V40.7273ZM204.44 56.2983C209.073 56.2983 211.957 53.1264 211.957 48.4233C211.957 43.6903 209.073 40.5284 204.44 40.5284C199.806 40.5284 196.923 43.6903 196.923 48.4233C196.923 53.1264 199.806 56.2983 204.44 56.2983ZM204.46 53.017C202.322 53.017 201.228 51.0582 201.228 48.3935C201.228 45.7287 202.322 43.7599 204.46 43.7599C206.558 43.7599 207.652 45.7287 207.652 48.3935C207.652 51.0582 206.558 53.017 204.46 53.017ZM214.151 56H218.387V47.3594C218.387 45.4801 219.759 44.1875 221.628 44.1875C222.215 44.1875 223.021 44.2869 223.418 44.4162V40.6577C223.04 40.5682 222.513 40.5085 222.086 40.5085C220.376 40.5085 218.974 41.5028 218.417 43.392H218.258V40.7273H214.151V56ZM228.128 61.6974C231.28 61.6974 232.961 60.0966 233.816 57.6506L239.752 40.7472L235.267 40.7273L232.076 51.9432H231.916L228.755 40.7273H224.3L229.779 56.4375L229.53 57.0838C228.934 58.4659 227.909 58.5653 226.418 58.098L225.463 61.2699C226.07 61.5185 227.054 61.6974 228.128 61.6974ZM246.42 35.6364H241.996L242.393 49.8949H246.033L246.42 35.6364ZM244.213 56.2585C245.486 56.2585 246.589 55.1946 246.599 53.8722C246.589 52.5696 245.486 51.5057 244.213 51.5057C242.901 51.5057 241.817 52.5696 241.827 53.8722C241.817 55.1946 242.901 56.2585 244.213 56.2585Z" fill="black"/>
</svg>
